<svg xmlns="http://www.w3.org/2000/svg" viewBox="0 0 84.5 25.19"><g><path fill="#4bbfe1" fill-rule="evenodd" d="M7.55 9.05h1.18c2.32 0 3.45-1.14 3.45-3.5a3.47 3.47 0 00-.83-2.46 3.57 3.57 0 00-2.73-1H7.55zm.9 2.09H5.28V0h3.19a6.45 6.45 0 014.59 1.49 5.32 5.32 0 011.49 4A5.35 5.35 0 0113 9.59a6.31 6.31 0 01-4.52 1.55z"/><path fill="#4bbfe1" fill-rule="evenodd" d="M23.3 11.14h-6.87V.02h6.87v2.1h-4.6v2.37h4.6v2.03h-4.6v2.53h4.6v2.09z"/><path fill="#8b8b8b" fill-rule="evenodd" d="M30.32 25.08h-1.48L24.3 13.85h2.43l2.32 5.79c.26.64.48 1.22.65 1.72.22-.59.45-1.17.69-1.72l2.43-5.79h2.37z"/><path fill="#4bbfe1" fill-rule="evenodd" d="M29.17 0h1.48l4.54 11.23h-2.43l-2.32-5.77c-.26-.64-.48-1.22-.65-1.72-.21.59-.44 1.17-.68 1.72l-2.44 5.79h-2.36z"/><path fill="#8b8b8b" fill-rule="evenodd" d="M40.81 15.7a2.57 2.57 0 00-2.15 1 4.24 4.24 0 00-.8 2.72 4.2 4.2 0 00.82 2.72 2.63 2.63 0 002.17 1 2.6 2.6 0 002.15-1 4.19 4.19 0 00.78-2.7A4.22 4.22 0 0043 16.7a2.57 2.57 0 00-2.15-1m0 9.49a5.15 5.15 0 01-3.64-1.38 5.7 5.7 0 01-1.73-4.36 6 6 0 011.47-4.13 5.47 5.47 0 017.82 0 6 6 0 011.45 4.14 5.9 5.9 0 01-1.47 4.11 5 5 0 01-3.9 1.63"/><path fill="#8b8b8b" fill-rule="evenodd" d="M54.48 24.97h-6.37V13.85h2.27v9.03h4.1v2.09z"/><path fill="#8b8b8b" fill-rule="evenodd" d="M60.53 25.08h-1.48l-4.53-11.23H57l2.31 5.79c.27.64.49 1.22.65 1.72.22-.59.45-1.16.69-1.72L63 13.85h2.4z"/><path fill="#8b8b8b" fill-rule="evenodd" d="M73.66 24.97h-6.85V13.85h6.85v2.09h-4.58v2.38h4.58v2.02h-4.58v2.54h4.58v2.09z"/><path fill="#8b8b8b" fill-rule="evenodd" d="M23.3 24.97h-6.85V13.85h6.85v2.09h-4.58v2.38h4.58v2.02h-4.58v2.54h4.58v2.09z"/><path fill="#8b8b8b" fill-rule="evenodd" d="M78.11 18.85h1.08a1.4 1.4 0 001.51-1.48c0-1-.52-1.43-1.62-1.43h-1zM84.5 25h-2.65l-.06-.1c-1-1.58-1.56-2.54-1.79-2.88a4.16 4.16 0 00-.93-1.16h-1V25h-2.23V13.85h3.29a4.19 4.19 0 013 1 3 3 0 01.87 2.27A2.92 2.92 0 0181.17 20c.36.43 1.17 1.58 3.13 4.68z"/><path fill="#4bbfe1" fill-rule="evenodd" d="M0 11h2V0H0v11z"/></g></svg>